<svg xmlns="http://www.w3.org/2000/svg" viewBox="0 0 64 64" role="img" aria-label="Peach icon">
  <rect width="64" height="64" rx="16" fill="#fff7f9"/>
  <path
    d="M39.4 11.4c5.9-3.5 11.8-3.2 16.6.8-1.6 5.9-6.2 9.7-13 10.8-3 .5-5.9.2-8.4-.8.9-4.4 2.5-8 4.8-10.8Z"
    fill="#62a871"
  />
  <path
    d="M32.3 21.9c1.6-5.9 3.9-10.1 7-12.8"
    fill="none"
    stroke="#2f7d4d"
    stroke-linecap="round"
    stroke-width="3.1"
  />
  <path
    d="M32 19.9c-12 0-22.1 9.2-22.1 21.1 0 9.3 7 15.9 15.9 15.9 2.9 0 4.6-.9 6.2-.9s3.3.9 6.2.9c8.9 0 15.9-6.6 15.9-15.9 0-11.9-10.1-21.1-22.1-21.1Z"
    fill="#f24d85"
  />
  <path
    d="M32 19.9c-7.1 0-13.3 3.2-17.3 8.3 4.6-2.6 10.4-2.3 14.2 1.4 1.4 1.3 2.4 2.9 3.1 4.8.7-1.9 1.8-3.6 3.2-4.9 3.8-3.6 9.4-3.9 14-1.3-4-5.1-10.1-8.3-17.2-8.3Z"
    fill="#ff79a3"
    opacity=".9"
  />
  <path
    d="M32 22.6c1.7 5.1 1.9 13.8 0 24.2"
    fill="none"
    stroke="#d62c68"
    stroke-linecap="round"
    stroke-width="2.4"
    opacity=".65"
  />
  <circle cx="23.2" cy="34.2" r="4.2" fill="#ff9fbc" opacity=".58"/>
</svg>
